<?xml version="1.0" encoding="UTF-8"?>
<!DOCTYPE svg PUBLIC "-//W3C//DTD SVG 1.1//EN" "http://www.w3.org/Graphics/SVG/1.1/DTD/svg11.dtd">
<svg xmlns="http://www.w3.org/2000/svg" version="1.1" width="4019px" height="1587px" style="shape-rendering:geometricPrecision; text-rendering:geometricPrecision; image-rendering:optimizeQuality; fill-rule:evenodd; clip-rule:evenodd" xmlns:xlink="http://www.w3.org/1999/xlink">
<g><path style="opacity:1" fill="#f9f9f9" d="M 1250.5,0.5 C 1461.38,-3.31151 1645.05,64.5218 1801.5,204C 1880.47,276.429 1938.64,362.929 1976,463.5C 2016.39,582.956 2019.05,703.29 1984,824.5C 1964.77,888.958 1937.43,949.625 1902,1006.5C 1878.21,1031.99 1849.37,1040.16 1815.5,1031C 1795.13,1023.96 1779.63,1011.12 1769,992.5C 1745.59,934.302 1713.59,881.635 1673,834.5C 1625.6,782.535 1568.1,746.368 1500.5,726C 1473.58,714.072 1457.42,693.572 1452,664.5C 1452.17,626.509 1443.84,590.509 1427,556.5C 1401.87,506.692 1369.04,462.526 1328.5,424C 1261.76,360.11 1183.42,316.11 1093.5,292C 1043.27,279.9 992.44,276.4 941,281.5C 900.568,280.068 874.235,260.068 862,221.5C 854.778,189.867 862.945,163.034 886.5,141C 992.097,54.4044 1113.43,7.57106 1250.5,0.5 Z"/></g>
<g><path style="opacity:1" fill="#f9f9f9" d="M 2716.5,1.5 C 2842.57,-1.65223 2959.24,29.5144 3066.5,95C 3093.67,111.823 3118.83,131.323 3142,153.5C 3162.07,182.745 3163.73,213.078 3147,244.5C 3131.01,270.082 3107.84,283.082 3077.5,283.5C 2980.53,274.327 2889.53,293.493 2804.5,341C 2721.44,387.059 2654.94,450.559 2605,531.5C 2585.9,563.038 2573.57,597.038 2568,633.5C 2568.68,651.715 2566.01,669.381 2560,686.5C 2552.32,702.509 2540.82,715.009 2525.5,724C 2504.61,731.445 2483.94,739.445 2463.5,748C 2401.95,778.199 2351.45,821.366 2312,877.5C 2286.22,915.04 2264.56,955.04 2247,997.5C 2225.28,1029.19 2195.44,1041.36 2157.5,1034C 2136.55,1028.62 2120.38,1016.78 2109,998.5C 2063.2,921.546 2032.53,838.879 2017,750.5C 1992.57,579.212 2033.23,425.546 2139,289.5C 2241,164.192 2369.83,78.3582 2525.5,32C 2588.04,13.8534 2651.71,3.68676 2716.5,1.5 Z"/></g>
<g><path style="opacity:1" fill="#01a8ed" d="M 1263.5,41.5 C 1437.41,40.6354 1592.75,92.802 1729.5,198C 1809.95,260.784 1872.45,337.951 1917,429.5C 1974.44,557.289 1982.44,688.289 1941,822.5C 1924.49,875.205 1902.16,925.538 1874,973.5C 1858.45,994.9 1839.28,998.733 1816.5,985C 1814,982.5 1811.5,980 1809,977.5C 1790.62,934.726 1768.62,894.059 1743,855.5C 1694.83,785.319 1631.66,733.485 1553.5,700C 1541.06,695.074 1528.39,690.741 1515.5,687C 1503.29,680.753 1495.79,670.92 1493,657.5C 1492.81,622.414 1486.14,588.748 1473,556.5C 1443.82,491.673 1402.99,435.173 1350.5,387C 1281.39,323.104 1201.39,278.437 1110.5,253C 1052.56,238.638 993.895,234.305 934.5,240C 914.3,234.797 902.967,221.797 900.5,201C 900.827,193.017 903.327,185.85 908,179.5C 956.213,136.296 1010.71,103.13 1071.5,80C 1133.48,56.7045 1197.48,43.8712 1263.5,41.5 Z"/></g>
<g><path style="opacity:1" fill="#01a8ed" d="M 2702.5,43.5 C 2837.99,36.964 2960.99,72.1306 3071.5,149C 3082.45,156.952 3093.12,165.285 3103.5,174C 3121.81,193.891 3121.48,213.558 3102.5,233C 3094.97,238.234 3086.63,241.401 3077.5,242.5C 2974.86,232.992 2878.53,252.826 2788.5,302C 2698.25,351.253 2625.75,419.419 2571,506.5C 2556.24,532.012 2544.24,558.679 2535,586.5C 2528.35,611.749 2524.68,637.416 2524,663.5C 2520.39,675.446 2512.89,683.946 2501.5,689C 2425.47,712.258 2361.31,753.758 2309,813.5C 2268.63,861.213 2236.63,914.213 2213,972.5C 2203.54,989.647 2189.04,996.814 2169.5,994C 2160.33,991.826 2152.83,986.993 2147,979.5C 2099.07,900.187 2068.41,814.52 2055,722.5C 2041.07,600.473 2065.07,486.807 2127,381.5C 2188.45,282.045 2269.62,202.879 2370.5,144C 2473.25,85.0337 2583.92,51.5337 2702.5,43.5 Z"/></g>
<g><path style="opacity:1" fill="#f9f9f9" d="M -0.5,706.5 C -0.5,704.833 -0.5,703.167 -0.5,701.5C 0.855723,684.627 8.18906,670.794 21.5,660C 113.724,584.846 212.724,519.513 318.5,464C 416.859,412.826 520.193,375.16 628.5,351C 716.651,331.822 805.651,326.156 895.5,334C 976.762,341.312 1053.43,363.978 1125.5,402C 1189.8,436.628 1241.63,484.794 1281,546.5C 1325.85,621.901 1342.85,703.234 1332,790.5C 1320.64,884.846 1283.64,967.18 1221,1037.5C 1122.9,1143.36 1001.23,1197.69 856,1200.5C 791.277,1200.62 729.444,1187.46 670.5,1161C 624.549,1139.62 586.716,1108.45 557,1067.5C 520.268,1010.4 509.935,948.732 526,882.5C 528.424,864.151 536.258,848.651 549.5,836C 567.523,823.45 586.857,821.117 607.5,829C 612.772,831.941 617.772,835.274 622.5,839C 635.95,857.451 649.783,875.618 664,893.5C 681.882,914.82 702.382,932.987 725.5,948C 765.721,972.859 807.055,974.859 849.5,954C 875.628,941.372 897.795,923.872 916,901.5C 935.629,876.581 950.296,848.914 960,818.5C 971.937,772.661 961.604,732.661 929,698.5C 901.59,672.196 870.09,652.029 834.5,638C 770.134,613.26 703.468,599.26 634.5,596C 541.094,590.05 450.094,602.05 361.5,632C 313.433,648.598 271.266,674.431 235,709.5C 220.871,724.418 209.204,741.084 200,759.5C 185.593,778.861 166.426,786.694 142.5,783C 107.833,774.333 73.1667,765.667 38.5,757C 15.0954,748.107 2.09542,731.274 -0.5,706.5 Z"/></g>
<g><path style="opacity:1" fill="#f9f9f9" d="M 3191.5,331.5 C 3311.58,332.735 3427.91,354.235 3540.5,396C 3666.43,443.284 3783.76,505.617 3892.5,583C 3931.14,610.302 3968.64,639.135 4005,669.5C 4018.57,687.95 4021.24,707.95 4013,729.5C 4005.97,742.865 3995.47,752.365 3981.5,758C 3947.21,766.823 3912.88,775.489 3878.5,784C 3854.13,789.052 3834.3,781.886 3819,762.5C 3797.7,722.535 3767.54,691.035 3728.5,668C 3670.62,635.26 3608.62,614.26 3542.5,605C 3436.11,588.88 3331.11,595.213 3227.5,624C 3183.15,636.342 3142.82,656.342 3106.5,684C 3052.75,727.836 3039.58,781.669 3067,845.5C 3080.53,874.682 3098.37,900.848 3120.5,924C 3139.41,939.961 3160.41,952.628 3183.5,962C 3222.27,975.538 3258.94,971.205 3293.5,949C 3321.5,930.333 3345.67,907.5 3366,880.5C 3374.58,869.009 3382.91,857.343 3391,845.5C 3409.15,826.588 3430.65,821.421 3455.5,830C 3468.59,835.459 3478.09,844.626 3484,857.5C 3499.01,899.855 3502.68,943.188 3495,987.5C 3483.94,1038.13 3459.1,1080.63 3420.5,1115C 3363.35,1162.05 3297.68,1189.72 3223.5,1198C 3080.57,1213.34 2953.91,1175.68 2843.5,1085C 2731.35,986.673 2678.18,862.506 2684,712.5C 2693.42,611.821 2735.59,527.987 2810.5,461C 2879.71,402.737 2959.04,364.737 3048.5,347C 3095.85,337.466 3143.52,332.3 3191.5,331.5 Z"/></g>
<g><path style="opacity:1" fill="#02a8ed" d="M 803.5,371.5 C 886.809,369.441 967.476,382.608 1045.5,411C 1113.02,436.344 1170.52,476.178 1218,530.5C 1285.74,616.133 1308.07,712.799 1285,820.5C 1276.49,858.828 1263.49,895.494 1246,930.5C 1166.48,1064.54 1048.98,1140.04 893.5,1157C 824.328,1163.41 757.995,1153.07 694.5,1126C 647.915,1105.81 611.082,1074.31 584,1031.5C 561.971,991.639 555.305,949.305 564,904.5C 565.862,894.718 568.195,885.052 571,875.5C 577.422,864.08 585.422,862.747 595,871.5C 619.975,910.574 650.809,944.407 687.5,973C 756.136,1020.62 825.469,1021.62 895.5,976C 910.491,966.35 924.324,955.184 937,942.5C 958.759,916.671 976.759,888.338 991,857.5C 1021.83,780.322 1006.99,713.489 946.5,657C 911.546,628.018 872.546,606.018 829.5,591C 717.294,554.89 602.628,544.557 485.5,560C 413.188,568.451 344.855,589.451 280.5,623C 247.525,641.628 218.358,665.128 193,693.5C 182.155,707.354 172.488,722.021 164,737.5C 160.149,741.989 155.315,743.489 149.5,742C 116.458,733.823 83.4576,725.489 50.5,717C 41.8082,712.139 39.6416,705.306 44,696.5C 158.508,601.455 284.008,523.288 420.5,462C 496.285,429.518 574.618,404.851 655.5,388C 704.568,378.715 753.901,373.215 803.5,371.5 Z"/></g>
<g><path style="opacity:1" fill="#02a8ed" d="M 3170.5,373.5 C 3273.29,371.541 3373.62,386.041 3471.5,417C 3591.93,455.882 3705.27,509.882 3811.5,579C 3867.89,615.781 3922.06,655.614 3974,698.5C 3977.32,703.538 3977.32,708.538 3974,713.5C 3972.04,716.135 3969.54,717.969 3966.5,719C 3931.91,727.982 3897.24,736.315 3862.5,744C 3859.44,743.151 3856.77,741.651 3854.5,739.5C 3825.82,688.987 3785.82,650.153 3734.5,623C 3672.07,590.627 3605.74,570.294 3535.5,562C 3426.99,547.553 3319.99,554.886 3214.5,584C 3171.23,596.8 3130.9,615.8 3093.5,641C 3013.6,699.069 2992.44,773.902 3030,865.5C 3045.42,897.186 3064.92,926.019 3088.5,952C 3190.66,1037.18 3286.82,1030.68 3377,932.5C 3393.15,914.024 3408.15,894.691 3422,874.5C 3430.42,864.969 3438.42,865.302 3446,875.5C 3472.39,958.806 3453.22,1029.31 3388.5,1087C 3353.99,1114.59 3315.33,1134.25 3272.5,1146C 3147.18,1176 3029.85,1157.33 2920.5,1090C 2857.52,1049.03 2807.69,995.859 2771,930.5C 2741.42,871.518 2725.92,808.852 2724.5,742.5C 2726.27,644.671 2762.94,562.505 2834.5,496C 2884.6,452.11 2941.6,420.443 3005.5,401C 3059.4,384.906 3114.4,375.739 3170.5,373.5 Z"/></g>
<g><path style="opacity:1" fill="#f9f9f9" d="M 1442.5,777.5 C 1454.58,776.679 1465.91,779.179 1476.5,785C 1536.69,824.172 1590.53,871.005 1638,925.5C 1662.99,955.449 1683.99,988.115 1701,1023.5C 1718.68,1061.23 1726.35,1100.9 1724,1142.5C 1721.85,1161.79 1717.18,1180.45 1710,1198.5C 1688.13,1255.62 1657.13,1306.95 1617,1352.5C 1527.98,1451.13 1419.48,1519.63 1291.5,1558C 1181.77,1590.55 1071.43,1592.88 960.5,1565C 858.514,1535.61 771.347,1482.45 699,1405.5C 667.942,1372.02 640.276,1336.02 616,1297.5C 600.678,1270.27 604.178,1245.77 626.5,1224C 641.593,1212.73 658.26,1209.39 676.5,1214C 690.956,1220.73 705.289,1227.73 719.5,1235C 784.252,1261.68 851.586,1272.35 921.5,1267C 1054.29,1256.58 1169.62,1206.91 1267.5,1118C 1351.89,1037.58 1394.39,938.745 1395,821.5C 1401.44,796.554 1417.28,781.887 1442.5,777.5 Z"/></g>
<g><path style="opacity:1" fill="#f9f9f9" d="M 2921.5,1586.5 C 2912.83,1586.5 2904.17,1586.5 2895.5,1586.5C 2724.83,1578.3 2576.16,1517.46 2449.5,1404C 2392.39,1351.92 2347.89,1290.75 2316,1220.5C 2288.57,1162.86 2286.24,1104.19 2309,1044.5C 2326.16,1002.48 2349.16,964.151 2378,929.5C 2426.13,873.589 2480.97,825.756 2542.5,786C 2566.83,774.742 2589,777.909 2609,795.5C 2616.31,803.459 2620.98,812.792 2623,823.5C 2622.69,927.948 2657.36,1018.61 2727,1095.5C 2806.14,1178.18 2901.97,1232.01 3014.5,1257C 3093.11,1274.61 3171.45,1273.61 3249.5,1254C 3280.27,1244.97 3309.61,1232.63 3337.5,1217C 3368.6,1208.36 3391.77,1218.19 3407,1246.5C 3413,1260.83 3413,1275.17 3407,1289.5C 3360.37,1368.21 3299.87,1434.37 3225.5,1488C 3133.91,1550.58 3032.58,1583.42 2921.5,1586.5 Z"/></g>
<g><path style="opacity:1" fill="#01a8ed" d="M 1444.5,819.5 C 1447.94,819.301 1451.27,819.801 1454.5,821C 1516.33,860.571 1570.5,909.071 1617,966.5C 1647.05,1003.93 1668.05,1045.93 1680,1092.5C 1684.92,1114.92 1684.58,1137.25 1679,1159.5C 1663.07,1210.7 1638.73,1257.37 1606,1299.5C 1540.43,1381.85 1459.59,1444.35 1363.5,1487C 1272.9,1528.25 1177.56,1546.59 1077.5,1542C 956.374,1533.87 851.04,1489.2 761.5,1408C 718.289,1367.49 681.122,1322.32 650,1272.5C 646.94,1262.23 650.607,1255.9 661,1253.5C 671.746,1257.96 682.246,1263.12 692.5,1269C 768.228,1302.07 847.561,1315.07 930.5,1308C 1066.71,1296.21 1186.04,1245.54 1288.5,1156C 1385.2,1066.24 1435.37,955.405 1439,823.5C 1440.81,822.023 1442.65,820.69 1444.5,819.5 Z"/></g>
<g><path style="opacity:1" fill="#01a8ed" d="M 2566.5,820.5 C 2574.04,820.186 2579.21,823.519 2582,830.5C 2582.54,937.477 2617.21,1031.48 2686,1112.5C 2743.05,1177.28 2811.22,1226.78 2890.5,1261C 2985.52,1301.95 3084.85,1317.61 3188.5,1308C 3246.94,1301.85 3301.61,1284.52 3352.5,1256C 3363.7,1254.54 3369.2,1259.38 3369,1270.5C 3320.86,1352.31 3256.69,1418.81 3176.5,1470C 3066.34,1535.04 2947.67,1557.7 2820.5,1538C 2675.08,1513.38 2550.91,1448.54 2448,1343.5C 2409.9,1303.32 2379.23,1257.99 2356,1207.5C 2349.8,1192.41 2344.13,1177.08 2339,1161.5C 2333.07,1137.51 2333.07,1113.51 2339,1089.5C 2347.35,1057.8 2360.35,1028.13 2378,1000.5C 2415.21,945.618 2460.38,898.118 2513.5,858C 2530.81,844.83 2548.48,832.33 2566.5,820.5 Z"/></g>
<g><path style="opacity:1" fill="#f9f9f9" d="M 2000.5,993.5 C 2017.27,991.606 2032.27,995.773 2045.5,1006C 2071.77,1042.35 2099.6,1077.52 2129,1111.5C 2145.73,1129.79 2165.9,1142.96 2189.5,1151C 2214.01,1160.73 2238.68,1170.06 2263.5,1179C 2283.81,1197.06 2289.31,1218.89 2280,1244.5C 2277.73,1249.1 2275.06,1253.43 2272,1257.5C 2196.14,1334.36 2120.64,1411.53 2045.5,1489C 2025.25,1503.7 2003.92,1505.37 1981.5,1494C 1973.74,1488.24 1966.57,1481.74 1960,1474.5C 1889,1401.5 1818,1328.5 1747,1255.5C 1733.38,1234.06 1733.05,1212.4 1746,1190.5C 1749.5,1185.67 1753.67,1181.5 1758.5,1178C 1792.7,1167.16 1826.03,1154.16 1858.5,1139C 1870.13,1132.38 1880.29,1123.88 1889,1113.5C 1918.86,1078.99 1947.19,1043.32 1974,1006.5C 1981.92,1000.12 1990.75,995.791 2000.5,993.5 Z"/></g>
<g><path style="opacity:1" fill="#01a8ed" d="M 2005.5,1035.5 C 2008.52,1035.34 2011.52,1035.5 2014.5,1036C 2039.91,1069.95 2066.41,1103.12 2094,1135.5C 2103.2,1145.03 2112.7,1154.2 2122.5,1163C 2146.48,1177.99 2171.82,1190.33 2198.5,1200C 2211.81,1204.66 2225.14,1209.33 2238.5,1214C 2242.87,1218.04 2243.7,1222.88 2241,1228.5C 2166.53,1305.3 2091.7,1381.8 2016.5,1458C 2012.17,1460 2007.83,1460 2003.5,1458C 1928.64,1382.14 1854.14,1305.97 1780,1229.5C 1776.08,1223.44 1776.92,1218.27 1782.5,1214C 1817.8,1202.56 1852.13,1188.56 1885.5,1172C 1889.83,1169 1894.17,1166 1898.5,1163C 1912.06,1150.11 1924.9,1136.61 1937,1122.5C 1960.34,1093.79 1983.17,1064.79 2005.5,1035.5 Z"/></g>
</svg>
