<svg version="1.1" id="Layer_1" xmlns="http://www.w3.org/2000/svg" xmlns:xlink="http://www.w3.org/1999/xlink" x="0px" y="0px"
	 width="100%" viewBox="0 0 4019 1587" enable-background="new 0 0 4019 1587" xml:space="preserve">
<path fill="#010000" opacity="1.000000" stroke="none" 
	d="
M4022.000000,728.000000 
	C4022.000000,1015.206116 4022.000000,1302.412231 4022.000000,1590.000000 
	C3669.283691,1590.000000 3316.567139,1590.000000 2962.279297,1589.266968 
	C2962.056641,1587.747681 2963.332764,1586.458496 2964.765381,1586.251343 
	C2984.119873,1583.453003 3003.642578,1581.585693 3022.840576,1577.980469 
	C3092.632080,1564.874268 3156.991455,1538.011841 3216.359863,1499.261108 
	C3259.746338,1470.942139 3298.203857,1436.848511 3332.900146,1398.374268 
	C3360.350098,1367.935181 3384.649902,1335.188965 3406.462646,1300.559204 
	C3415.792725,1285.746582 3418.047363,1270.026123 3412.453369,1253.033691 
	C3403.011963,1224.354980 3366.168701,1204.791626 3333.100830,1223.701782 
	C3282.907959,1252.404907 3228.225342,1266.561035 3171.013672,1271.077026 
	C3140.512939,1273.484619 3109.881104,1272.912109 3079.380371,1269.551758 
	C3032.668701,1264.405273 2987.198975,1253.903076 2943.143066,1237.557861 
	C2859.450928,1206.507202 2786.076416,1159.907104 2726.580322,1092.691406 
	C2695.016113,1057.031982 2670.156738,1017.115356 2652.949463,972.683594 
	C2635.762451,928.303223 2627.824219,882.134399 2627.586670,834.538086 
	C2627.485596,814.263184 2617.777832,798.938110 2600.276855,789.093140 
	C2582.022461,778.824463 2563.020508,778.728638 2545.322266,789.877258 
	C2506.703857,814.203735 2471.005127,842.498169 2437.691406,873.639282 
	C2409.214844,900.258728 2382.858887,928.916992 2360.271729,960.829163 
	C2332.375000,1000.242859 2310.030762,1042.280396 2301.008057,1090.278198 
	C2295.864990,1117.638672 2295.317871,1145.182373 2302.300293,1172.337280 
	C2310.447754,1204.023560 2323.654541,1233.791504 2339.258301,1262.419678 
	C2373.253662,1324.790649 2419.072998,1377.504272 2472.914307,1423.406738 
	C2531.825195,1473.631592 2597.520508,1512.708374 2669.478271,1541.177368 
	C2723.748047,1562.648193 2779.722656,1577.631714 2837.838623,1584.105713 
	C2844.760010,1584.876709 2851.715332,1585.358765 2858.621094,1586.241333 
	C2860.595703,1586.493774 2862.745361,1587.578735 2860.000000,1590.000000 
	C2286.616943,1590.000000 1713.233765,1590.000000 1138.280273,1589.251221 
	C1139.067383,1587.701172 1141.406128,1586.263428 1143.785156,1586.193359 
	C1184.774780,1584.985962 1224.997803,1578.386230 1264.746338,1568.778442 
	C1326.723145,1553.797974 1385.507812,1530.526978 1441.114136,1499.357178 
	C1510.732544,1460.332764 1572.577881,1411.624878 1624.424438,1350.686035 
	C1663.048096,1305.288696 1693.630859,1255.192017 1714.750610,1199.179443 
	C1730.180908,1158.256226 1732.451538,1117.161743 1721.970459,1075.020142 
	C1711.629028,1033.441162 1691.814575,996.404236 1667.359375,961.656860 
	C1637.720703,919.544922 1602.661377,882.290039 1562.890625,849.767517 
	C1536.936401,828.543518 1509.727783,808.788086 1482.397949,789.334778 
	C1464.916382,776.891602 1445.271240,776.828857 1426.651489,786.760010 
	C1407.941895,796.739014 1398.735718,813.116028 1398.150879,834.752136 
	C1397.677124,852.275879 1396.300049,869.833740 1394.214966,887.243713 
	C1388.949463,931.208252 1374.921875,972.421509 1354.296143,1011.568481 
	C1328.204224,1061.090088 1292.858887,1102.981079 1250.496460,1139.188477 
	C1211.829590,1172.237427 1168.939819,1198.633301 1122.676025,1219.622681 
	C1050.050659,1252.571655 973.789978,1269.711426 894.113342,1271.077759 
	C877.257751,1271.366699 860.320374,1269.574707 843.487610,1268.018311 
	C789.583923,1263.033936 738.693665,1248.084595 691.447815,1221.275269 
	C681.701599,1215.744873 671.088379,1214.419067 659.864868,1215.146851 
	C625.139648,1217.398438 598.123657,1255.875854 616.277954,1293.288574 
	C620.459167,1301.905273 626.149658,1309.840210 631.582092,1317.790649 
	C664.159058,1365.467651 700.867004,1409.495605 744.418823,1447.739502 
	C799.278442,1495.913086 860.642517,1532.706177 929.685730,1556.627441 
	C979.579041,1573.913696 1030.793335,1584.169800 1083.614502,1586.124268 
	C1085.241577,1586.184326 1086.879150,1586.514404 1088.436279,1586.974121 
	C1088.576416,1587.015503 1088.158691,1588.946533 1088.000000,1590.000000 
	C726.157349,1590.000000 364.314667,1590.000000 2.000000,1590.000000 
	C2.000000,1299.950317 2.000000,1009.900452 2.764482,718.854187 
	C4.248033,718.797546 5.339447,719.634644 5.631294,720.692261 
	C11.700384,742.686829 26.339605,755.643799 48.096031,761.100220 
	C80.009476,769.104065 111.906784,777.174988 143.863922,785.000977 
	C169.695877,791.327148 194.179001,780.023804 206.272919,757.635193 
	C219.200333,733.703613 236.341736,713.242065 257.178833,695.642578 
	C290.941589,667.125732 329.535034,647.559021 370.858063,632.925293 
	C439.826721,608.501526 511.321991,598.745911 584.106873,597.403381 
	C625.664246,596.636780 667.040527,599.645447 708.167969,605.979309 
	C755.281982,613.235168 801.253784,624.587219 845.078979,643.654236 
	C879.791077,658.756470 911.990967,677.704407 937.350525,706.543030 
	C963.953796,736.795837 974.680847,771.482117 966.272949,811.455750 
	C962.341431,830.147705 955.253296,847.584961 945.979736,864.203552 
	C934.598328,884.599304 922.147156,904.519775 905.419678,920.756897 
	C886.483215,939.138306 864.166260,953.215393 839.273682,962.608276 
	C812.605469,972.671021 785.767822,974.022278 758.508545,964.292603 
	C732.901306,955.152649 711.584167,939.627136 692.156311,921.208618 
	C670.588745,900.761658 651.875244,877.818298 635.616760,852.997925 
	C615.765747,822.693176 577.900146,821.022949 556.044495,837.032959 
	C545.402771,844.828308 538.652771,855.101868 534.826599,867.566223 
	C524.699463,900.556824 520.850281,934.246399 524.165527,968.598633 
	C529.430542,1023.153931 553.475403,1068.856812 592.022278,1106.920898 
	C620.949829,1135.485962 655.193176,1156.386353 692.907104,1171.549683 
	C752.357971,1195.452759 814.109741,1205.002319 878.065308,1202.289551 
	C900.020691,1201.358154 921.790955,1199.414062 943.381775,1195.737427 
	C997.875305,1186.458252 1049.369629,1168.372559 1097.779297,1141.669434 
	C1148.371948,1113.761963 1192.626709,1077.941284 1230.096313,1033.963867 
	C1254.949707,1004.793579 1277.513916,973.875000 1293.578613,938.898376 
	C1324.021362,872.616943 1341.204102,803.462097 1338.570923,729.850708 
	C1337.483276,699.448853 1333.360840,669.685242 1325.048462,640.606628 
	C1304.170654,567.570190 1263.503296,507.212158 1206.098145,457.822601 
	C1152.293335,411.530731 1090.117554,380.800079 1022.686829,360.431030 
	C966.505310,343.460052 908.724731,335.195892 850.111938,333.369324 
	C803.202454,331.907440 756.370178,334.094727 709.848083,340.317596 
	C643.204407,349.231995 577.974976,364.586670 514.185486,385.835449 
	C446.667206,408.326233 381.498779,436.319702 318.324188,469.152893 
	C266.352966,496.163422 216.083115,525.989136 167.306259,558.299133 
	C120.182419,589.514160 74.816803,623.211792 30.668291,658.523987 
	C18.805515,668.012512 8.435587,678.599609 5.107996,694.264526 
	C4.945704,695.028625 3.075115,695.429810 2.000004,696.000000 
	C2.000000,464.769318 2.000000,233.538620 2.000000,2.000000 
	C409.383087,2.000000 816.766235,2.000000 1225.805054,2.706142 
	C1226.210938,4.270104 1225.046143,5.676669 1223.695923,5.885796 
	C1219.120117,6.594527 1214.468994,6.796145 1209.863892,7.338989 
	C1152.486450,14.102794 1097.021362,28.252708 1043.659058,50.483543 
	C987.739197,73.779839 936.545471,104.884361 890.369812,144.080704 
	C853.486450,175.389374 854.993713,235.319855 892.536682,266.072998 
	C911.961975,281.985107 934.050171,286.214539 958.006653,283.743561 
	C985.255066,280.932983 1012.503296,281.315948 1039.594727,284.341125 
	C1094.850586,290.511292 1147.330566,306.610016 1196.989380,331.543762 
	C1255.744507,361.044891 1307.759399,399.641754 1352.719482,447.763458 
	C1378.010010,474.832520 1400.415161,503.956451 1418.787231,536.138855 
	C1433.513062,561.934082 1445.579468,588.903015 1451.112061,618.202209 
	C1453.806030,632.467773 1454.493042,647.144165 1455.593262,661.672119 
	C1457.989014,693.306519 1479.558716,721.305664 1512.353516,731.510803 
	C1583.906128,753.776672 1642.519531,794.974365 1689.888428,852.754761 
	C1723.673584,893.965820 1749.126221,940.032776 1770.129761,988.741211 
	C1774.548584,998.988464 1780.534302,1008.252686 1788.689697,1015.649841 
	C1827.914551,1051.227295 1889.496460,1042.385620 1914.314941,996.292542 
	C1928.322510,970.277344 1942.471191,944.242554 1954.630615,917.346008 
	C1988.155396,843.189331 2008.018311,765.479675 2012.428223,683.983276 
	C2012.888184,684.006836 2013.797485,684.155212 2013.949707,685.038330 
	C2014.618286,692.525391 2015.244751,699.122803 2015.632446,705.734253 
	C2017.402832,735.929932 2022.560669,765.598450 2029.332642,795.025452 
	C2046.082642,867.812195 2074.945557,935.749878 2112.559570,999.993469 
	C2128.749023,1027.645020 2154.538574,1040.862671 2186.152100,1038.929199 
	C2220.345215,1036.838013 2244.375244,1018.347046 2257.645996,986.640015 
	C2272.970459,950.027649 2291.827148,915.343018 2314.465088,882.797302 
	C2343.567383,840.957458 2378.510986,804.867249 2421.253662,776.653076 
	C2450.546387,757.316956 2482.143066,742.894531 2515.496826,732.276855 
	C2534.444824,726.244995 2548.612793,714.540955 2559.189453,697.952148 
	C2568.661133,683.096008 2570.810059,666.453186 2571.686523,649.427734 
	C2572.027588,642.799255 2571.967529,636.096863 2572.976562,629.565063 
	C2577.956543,597.329773 2590.365479,567.755188 2606.195557,539.514282 
	C2633.142334,491.441162 2668.467041,450.066742 2709.613770,413.809296 
	C2766.087891,364.046173 2829.751221,326.450165 2901.906006,303.826782 
	C2935.947266,293.153412 2970.762207,286.253815 3006.285889,284.418152 
	C3028.080811,283.291931 3050.073242,284.616760 3071.907227,285.966431 
	C3099.107666,287.647797 3122.287109,280.250366 3141.212891,260.049561 
	C3165.678955,233.935211 3169.490479,192.166870 3149.903564,162.254181 
	C3140.951660,148.583206 3128.026855,139.225800 3115.434814,129.481293 
	C3051.482666,79.990868 2980.162598,45.496708 2901.999512,25.092457 
	C2870.167480,16.782843 2837.896240,10.759851 2805.069824,7.992830 
	C2796.808105,7.296441 2788.534668,6.727224 2780.283203,5.929492 
	C2778.138672,5.722179 2775.034668,5.458322 2778.000000,2.000000 
	C3192.484131,2.000000 3606.968018,2.000000 4022.000000,2.000000 
	C4022.000000,230.716187 4022.000000,459.432800 4021.404053,689.671143 
	C4019.299561,688.721313 4017.958496,686.126526 4016.249512,683.802124 
	C4011.944092,677.945984 4008.402344,671.070129 4002.922119,666.607605 
	C3956.270752,628.619202 3908.012207,592.757568 3857.864258,559.493103 
	C3792.433594,516.091248 3724.443604,477.222870 3653.260010,443.973877 
	C3609.583740,423.573303 3564.984375,405.519104 3519.358154,390.007080 
	C3462.678711,370.737183 3404.875732,355.701416 3345.708740,346.551239 
	C3316.255127,341.996185 3286.550049,338.600159 3256.831787,336.375244 
	C3233.739014,334.646362 3210.435303,334.919006 3187.251953,335.450623 
	C3164.372559,335.975281 3141.456055,337.217590 3118.679932,339.426025 
	C3069.235352,344.220276 3021.031494,354.969238 2974.220215,371.769653 
	C2902.432617,397.533997 2838.614258,435.662018 2786.210205,491.854004 
	C2758.041016,522.059326 2735.164307,555.828430 2718.559814,593.488525 
	C2695.353271,646.121704 2684.867188,701.275574 2687.398438,759.062317 
	C2688.741455,789.729797 2692.583496,819.850525 2700.121826,849.484741 
	C2711.051025,892.447021 2725.925537,933.902649 2749.393555,971.853271 
	C2771.338623,1007.341125 2797.304443,1039.508667 2827.280762,1068.619873 
	C2867.075439,1107.265991 2912.246338,1137.845581 2962.693604,1160.553955 
	C3028.466309,1190.160767 3097.402588,1204.838257 3169.727051,1204.261963 
	C3219.689697,1203.863770 3268.315674,1196.570068 3315.399414,1179.937622 
	C3367.354980,1161.584473 3413.399658,1133.958862 3449.543213,1091.560913 
	C3479.932861,1055.913208 3498.239502,1014.791016 3501.960449,968.024780 
	C3504.693359,933.680481 3501.426514,899.642029 3490.274414,866.727295 
	C3483.419189,846.494324 3469.493408,833.596069 3448.532715,829.689392 
	C3425.651611,825.424866 3406.704102,832.809021 3392.666016,851.776855 
	C3383.787598,863.773499 3375.268555,876.059814 3365.927490,887.685425 
	C3345.432129,913.194275 3322.608887,936.283203 3294.328613,953.357239 
	C3266.422119,970.205383 3236.419678,976.959045 3204.421143,969.560852 
	C3170.475342,961.712463 3141.159912,944.016968 3117.593994,919.062988 
	C3092.125244,892.094910 3073.143311,860.282593 3062.362305,824.341675 
	C3056.492432,804.772949 3054.796387,784.766785 3059.254150,764.502563 
	C3065.825928,734.628357 3082.726074,711.231995 3105.192871,691.478516 
	C3127.591553,671.784363 3153.240723,657.244385 3180.526611,645.460205 
	C3246.606934,616.921509 3316.307129,604.614990 3387.594482,600.283142 
	C3420.444336,598.287048 3453.367432,598.821228 3486.296631,601.111511 
	C3530.159180,604.162170 3573.368652,610.814026 3615.756592,622.268982 
	C3662.105469,634.794189 3706.320801,652.455872 3746.150391,679.887085 
	C3776.134766,700.537842 3801.753418,725.357849 3818.757568,757.959412 
	C3830.607422,780.679688 3855.282959,793.219666 3882.679443,786.441833 
	C3914.592773,778.546570 3946.385498,770.157043 3978.348389,762.472900 
	C3989.800049,759.719788 3999.702393,754.820862 4007.154297,745.818054 
	C4011.330811,740.772278 4014.491455,734.881714 4018.057617,729.338074 
	C4019.062744,727.775513 4019.583008,725.221008 4022.000000,728.000000 
M2033.448853,1500.993286 
	C2041.938843,1497.615356 2049.081055,1492.350830 2055.408936,1485.791138 
	C2076.655518,1463.766479 2097.942139,1441.780151 2119.308105,1419.871338 
	C2149.284424,1389.133057 2179.320557,1358.452637 2209.379883,1327.795044 
	C2230.121338,1306.640503 2250.859619,1285.481567 2271.762939,1264.487671 
	C2284.300781,1251.895508 2289.629883,1236.841309 2288.284668,1219.288452 
	C2286.758057,1199.372925 2273.804688,1183.428589 2254.761963,1176.599854 
	C2233.870605,1169.108276 2213.252197,1160.860107 2192.444824,1153.130127 
	C2164.332275,1142.686157 2141.041504,1125.917847 2122.626709,1102.070679 
	C2100.103760,1072.903564 2076.065430,1044.857666 2054.512939,1015.005188 
	C2037.039185,990.801758 1991.690552,989.919250 1973.866821,1014.716248 
	C1948.697266,1049.732788 1921.885864,1083.549683 1893.111938,1115.742432 
	C1881.706543,1128.503052 1869.255981,1139.768066 1852.893188,1146.026367 
	C1825.322754,1156.571045 1797.840820,1167.346802 1770.332275,1178.052856 
	C1767.285034,1179.238892 1763.897095,1180.059448 1761.361572,1181.970825 
	C1736.077515,1201.031128 1732.912476,1238.105347 1753.540771,1260.472290 
	C1773.835327,1282.477173 1795.078125,1303.608398 1815.939697,1325.089478 
	C1839.818237,1349.677124 1863.711060,1374.250977 1887.641479,1398.788086 
	C1915.990845,1427.856079 1944.481689,1456.786621 1972.726685,1485.955444 
	C1989.423096,1503.198120 2009.184326,1507.911499 2033.448853,1500.993286 
z"/>
<path fill="#010000" opacity="1.000000" stroke="none" 
	d="
M1352.000000,2.000000 
	C1799.387085,2.000000 2246.774170,2.000000 2695.809570,2.725367 
	C2695.860107,4.321965 2694.333252,5.744374 2692.650879,5.962107 
	C2687.403809,6.641127 2682.099609,6.889038 2676.814453,7.260163 
	C2645.647461,9.448695 2614.883545,14.393915 2584.366211,20.934017 
	C2513.800293,36.056786 2446.708496,60.687588 2382.865479,94.342819 
	C2318.955566,128.033173 2260.839111,169.757919 2208.637939,219.639893 
	C2182.646484,244.476532 2158.965088,271.452545 2137.219482,300.106689 
	C2087.199219,366.018616 2051.126953,438.774109 2030.499878,518.967834 
	C2020.984863,555.960144 2015.863647,593.694702 2013.415771,631.798828 
	C2013.034424,631.761780 2012.268799,631.793762 2012.060303,630.922852 
	C2009.099365,604.736938 2007.770264,579.168396 2003.315308,554.156677 
	C1992.119385,491.298523 1970.335815,431.960815 1939.422363,376.095551 
	C1900.053345,304.949585 1848.542725,243.580078 1787.105347,190.620575 
	C1729.135010,140.649551 1664.891357,100.378555 1594.873413,69.313828 
	C1527.346191,39.354183 1457.087769,19.148182 1383.867554,9.311682 
	C1374.024414,7.989350 1364.119019,7.137070 1354.257935,5.939263 
	C1352.108765,5.678204 1348.993652,5.452775 1352.000000,2.000000 
z"/>
<path fill="#FBFDFD" opacity="1.000000" stroke="none" 
	d="
M2.000004,696.916138 
	C3.075115,695.429810 4.945704,695.028625 5.107996,694.264526 
	C8.435587,678.599609 18.805515,668.012512 30.668291,658.523987 
	C74.816803,623.211792 120.182419,589.514160 167.306259,558.299133 
	C216.083115,525.989136 266.352966,496.163422 318.324188,469.152893 
	C381.498779,436.319702 446.667206,408.326233 514.185486,385.835449 
	C577.974976,364.586670 643.204407,349.231995 709.848083,340.317596 
	C756.370178,334.094727 803.202454,331.907440 850.111938,333.369324 
	C908.724731,335.195892 966.505310,343.460052 1022.686829,360.431030 
	C1090.117554,380.800079 1152.293335,411.530731 1206.098145,457.822601 
	C1263.503296,507.212158 1304.170654,567.570190 1325.048462,640.606628 
	C1333.360840,669.685242 1337.483276,699.448853 1338.570923,729.850708 
	C1341.204102,803.462097 1324.021362,872.616943 1293.578613,938.898376 
	C1277.513916,973.875000 1254.949707,1004.793579 1230.096313,1033.963867 
	C1192.626709,1077.941284 1148.371948,1113.761963 1097.779297,1141.669434 
	C1049.369629,1168.372559 997.875305,1186.458252 943.381775,1195.737427 
	C921.790955,1199.414062 900.020691,1201.358154 878.065308,1202.289551 
	C814.109741,1205.002319 752.357971,1195.452759 692.907104,1171.549683 
	C655.193176,1156.386353 620.949829,1135.485962 592.022278,1106.920898 
	C553.475403,1068.856812 529.430542,1023.153931 524.165527,968.598633 
	C520.850281,934.246399 524.699463,900.556824 534.826599,867.566223 
	C538.652771,855.101868 545.402771,844.828308 556.044495,837.032959 
	C577.900146,821.022949 615.765747,822.693176 635.616760,852.997925 
	C651.875244,877.818298 670.588745,900.761658 692.156311,921.208618 
	C711.584167,939.627136 732.901306,955.152649 758.508545,964.292603 
	C785.767822,974.022278 812.605469,972.671021 839.273682,962.608276 
	C864.166260,953.215393 886.483215,939.138306 905.419678,920.756897 
	C922.147156,904.519775 934.598328,884.599304 945.979736,864.203552 
	C955.253296,847.584961 962.341431,830.147705 966.272949,811.455750 
	C974.680847,771.482117 963.953796,736.795837 937.350525,706.543030 
	C911.990967,677.704407 879.791077,658.756470 845.078979,643.654236 
	C801.253784,624.587219 755.281982,613.235168 708.167969,605.979309 
	C667.040527,599.645447 625.664246,596.636780 584.106873,597.403381 
	C511.321991,598.745911 439.826721,608.501526 370.858063,632.925293 
	C329.535034,647.559021 290.941589,667.125732 257.178833,695.642578 
	C236.341736,713.242065 219.200333,733.703613 206.272919,757.635193 
	C194.179001,780.023804 169.695877,791.327148 143.863922,785.000977 
	C111.906784,777.174988 80.009476,769.104065 48.096031,761.100220 
	C26.339605,755.643799 11.700384,742.686829 5.631294,720.692261 
	C5.339447,719.634644 4.248033,718.797546 2.764482,717.928894 
	C2.000000,711.277405 2.000000,704.554871 2.000004,696.916138 
M891.087036,984.095032 
	C887.326172,986.239319 883.616211,988.479370 879.796631,990.513428 
	C836.008545,1013.831360 790.535706,1020.516113 742.947693,1003.699890 
	C712.888184,993.077881 687.565979,974.863647 664.509521,953.250183 
	C640.323303,930.577515 619.804749,904.803833 601.043152,877.591064 
	C597.360046,872.248901 593.314026,868.477722 586.382507,869.402649 
	C578.839966,870.409180 576.081848,875.886047 574.249573,882.302551 
	C567.348145,906.471558 563.756042,931.015442 565.194458,956.228882 
	C567.329285,993.647217 580.100647,1027.013184 603.167419,1056.424927 
	C630.385376,1091.129761 665.691345,1115.088379 706.012817,1131.774292 
	C783.123535,1163.684570 862.969788,1168.640137 944.243530,1153.110474 
	C1036.191284,1135.541260 1115.276245,1093.305664 1180.642090,1026.017578 
	C1209.128784,996.693176 1234.356323,964.553833 1252.312256,927.882996 
	C1282.417847,866.399414 1299.180786,801.394592 1296.873291,732.251099 
	C1296.160034,710.878174 1293.638306,689.786316 1288.861206,668.958252 
	C1273.075928,600.133911 1237.564209,543.080505 1185.403198,496.040253 
	C1137.055786,452.439270 1080.684937,423.169312 1018.969788,403.676056 
	C949.038452,381.587585 877.266785,373.774902 804.119751,375.509552 
	C745.954224,376.888916 688.660645,384.484375 631.982483,397.087677 
	C527.302979,420.364868 428.428619,459.265839 333.574677,508.823761 
	C243.835342,555.709473 159.864395,611.491760 80.000679,673.580750 
	C70.531319,680.942566 61.150723,688.425659 51.905224,696.065857 
	C46.036953,700.915222 44.565369,706.133972 46.850040,711.892029 
	C49.063782,717.471069 53.742775,719.503174 59.184200,720.855408 
	C89.867065,728.480408 120.495956,736.322754 151.181992,743.934753 
	C161.594406,746.517700 165.487854,744.787109 170.725632,735.299194 
	C190.264206,699.906494 217.434769,671.472717 250.056381,648.008484 
	C289.423431,619.692383 333.164948,600.414551 379.261566,586.206970 
	C436.539764,568.553162 495.342834,559.631287 555.096985,556.802307 
	C613.835632,554.021362 672.227356,557.290100 730.224243,567.452942 
	C781.961365,576.518860 832.145020,590.474487 879.485657,613.597534 
	C915.453125,631.165527 948.149536,653.222778 973.688660,684.622681 
	C1003.385620,721.134399 1015.168091,762.675781 1009.442261,809.553528 
	C1003.425964,858.809509 958.734619,940.908325 906.566956,974.073669 
	C901.788574,977.111389 897.092957,980.279175 891.087036,984.095032 
z"/>
<path fill="#FBFDFD" opacity="1.000000" stroke="none" 
	d="
M4022.000000,727.200012 
	C4019.583008,725.221008 4019.062744,727.775513 4018.057617,729.338074 
	C4014.491455,734.881714 4011.330811,740.772278 4007.154297,745.818054 
	C3999.702393,754.820862 3989.800049,759.719788 3978.348389,762.472900 
	C3946.385498,770.157043 3914.592773,778.546570 3882.679443,786.441833 
	C3855.282959,793.219666 3830.607422,780.679688 3818.757568,757.959412 
	C3801.753418,725.357849 3776.134766,700.537842 3746.150391,679.887085 
	C3706.320801,652.455872 3662.105469,634.794189 3615.756592,622.268982 
	C3573.368652,610.814026 3530.159180,604.162170 3486.296631,601.111511 
	C3453.367432,598.821228 3420.444336,598.287048 3387.594482,600.283142 
	C3316.307129,604.614990 3246.606934,616.921509 3180.526611,645.460205 
	C3153.240723,657.244385 3127.591553,671.784363 3105.192871,691.478516 
	C3082.726074,711.231995 3065.825928,734.628357 3059.254150,764.502563 
	C3054.796387,784.766785 3056.492432,804.772949 3062.362305,824.341675 
	C3073.143311,860.282593 3092.125244,892.094910 3117.593994,919.062988 
	C3141.159912,944.016968 3170.475342,961.712463 3204.421143,969.560852 
	C3236.419678,976.959045 3266.422119,970.205383 3294.328613,953.357239 
	C3322.608887,936.283203 3345.432129,913.194275 3365.927490,887.685425 
	C3375.268555,876.059814 3383.787598,863.773499 3392.666016,851.776855 
	C3406.704102,832.809021 3425.651611,825.424866 3448.532715,829.689392 
	C3469.493408,833.596069 3483.419189,846.494324 3490.274414,866.727295 
	C3501.426514,899.642029 3504.693359,933.680481 3501.960449,968.024780 
	C3498.239502,1014.791016 3479.932861,1055.913208 3449.543213,1091.560913 
	C3413.399658,1133.958862 3367.354980,1161.584473 3315.399414,1179.937622 
	C3268.315674,1196.570068 3219.689697,1203.863770 3169.727051,1204.261963 
	C3097.402588,1204.838257 3028.466309,1190.160767 2962.693604,1160.553955 
	C2912.246338,1137.845581 2867.075439,1107.265991 2827.280762,1068.619873 
	C2797.304443,1039.508667 2771.338623,1007.341125 2749.393555,971.853271 
	C2725.925537,933.902649 2711.051025,892.447021 2700.121826,849.484741 
	C2692.583496,819.850525 2688.741455,789.729797 2687.398438,759.062317 
	C2684.867188,701.275574 2695.353271,646.121704 2718.559814,593.488525 
	C2735.164307,555.828430 2758.041016,522.059326 2786.210205,491.854004 
	C2838.614258,435.662018 2902.432617,397.533997 2974.220215,371.769653 
	C3021.031494,354.969238 3069.235352,344.220276 3118.679932,339.426025 
	C3141.456055,337.217590 3164.372559,335.975281 3187.251953,335.450623 
	C3210.435303,334.919006 3233.739014,334.646362 3256.831787,336.375244 
	C3286.550049,338.600159 3316.255127,341.996185 3345.708740,346.551239 
	C3404.875732,355.701416 3462.678711,370.737183 3519.358154,390.007080 
	C3564.984375,405.519104 3609.583740,423.573303 3653.260010,443.973877 
	C3724.443604,477.222870 3792.433594,516.091248 3857.864258,559.493103 
	C3908.012207,592.757568 3956.270752,628.619202 4002.922119,666.607605 
	C4008.402344,671.070129 4011.944092,677.945984 4016.249512,683.802124 
	C4017.958496,686.126526 4019.299561,688.721313 4021.404053,690.596436 
	C4022.000000,691.500000 4022.000000,693.000000 4021.334229,695.100159 
	C4021.112305,696.466858 4021.556152,697.233398 4022.000000,698.000000 
	C4022.000000,704.061218 4022.000000,710.122375 4021.283936,716.902344 
	C4021.045166,718.414001 4021.522705,719.207031 4022.000000,720.000000 
	C4022.000000,722.133362 4022.000000,724.266663 4022.000000,727.200012 
M3872.543945,746.096436 
	C3886.439209,742.659912 3900.346436,739.269897 3914.227051,735.775146 
	C3931.980225,731.305420 3949.679199,726.616760 3967.470947,722.308533 
	C3973.482178,720.852905 3978.140625,718.166382 3979.629395,711.953613 
	C3981.226562,705.289551 3978.145020,700.346802 3972.838623,696.543274 
	C3972.026855,695.961365 3971.253418,695.324524 3970.474854,694.697693 
	C3891.935303,631.445862 3809.245850,574.299316 3720.775146,525.754700 
	C3590.350830,454.189728 3453.252930,402.067780 3304.711426,383.223145 
	C3270.614258,378.897430 3236.376221,376.519836 3202.115479,376.634308 
	C3174.544678,376.726410 3146.904785,379.057892 3119.435547,381.798340 
	C3066.461426,387.083374 3015.172363,399.820404 2965.930420,420.171387 
	C2896.569580,448.837158 2836.772217,490.369904 2791.722656,551.369568 
	C2748.871338,609.392151 2728.929443,675.005310 2728.555664,746.636475 
	C2728.432373,770.233887 2731.381348,793.744202 2735.750000,817.076904 
	C2752.657959,907.379578 2795.150391,983.754089 2863.160156,1044.876831 
	C2971.811279,1142.525146 3099.371826,1178.854858 3243.465332,1155.848877 
	C3289.661621,1148.473145 3332.999268,1132.222778 3371.686768,1105.375977 
	C3434.234619,1061.971680 3467.358887,1003.633606 3459.803711,925.866516 
	C3458.365479,911.062622 3454.254150,896.486267 3450.839355,881.931030 
	C3450.071289,878.656372 3447.640381,875.146484 3444.950684,873.074097 
	C3438.800049,868.335022 3431.613037,870.336975 3426.063232,877.682434 
	C3415.822021,891.237671 3406.112793,905.222290 3395.377441,918.371277 
	C3371.412109,947.723999 3344.370605,973.724670 3311.033936,992.490173 
	C3278.319092,1010.905457 3243.308350,1019.145752 3206.185059,1012.528503 
	C3152.238281,1002.912415 3108.095215,975.809021 3073.997559,932.940186 
	C3051.440918,904.581360 3033.174561,873.640320 3022.810303,838.646301 
	C3007.258301,786.137024 3014.398926,737.139099 3047.220703,692.727600 
	C3067.348389,665.493042 3093.425781,644.948120 3122.499268,628.007996 
	C3156.093018,608.434265 3192.024902,594.469421 3229.347900,584.002075 
	C3288.657715,567.368530 3349.217773,559.391968 3410.748779,557.896667 
	C3472.276367,556.401550 3533.212646,561.188599 3593.429688,574.051025 
	C3642.823242,584.601440 3690.495117,600.178711 3735.095215,624.259033 
	C3785.635986,651.546936 3828.230225,687.322327 3856.087402,738.636719 
	C3859.309082,744.571167 3864.083740,747.346008 3872.543945,746.096436 
z"/>
<path fill="#FBFDFD" opacity="1.000000" stroke="none" 
	d="
M2013.797119,631.835815 
	C2015.863647,593.694702 2020.984863,555.960144 2030.499878,518.967834 
	C2051.126953,438.774109 2087.199219,366.018616 2137.219482,300.106689 
	C2158.965088,271.452545 2182.646484,244.476532 2208.637939,219.639893 
	C2260.839111,169.757919 2318.955566,128.033173 2382.865479,94.342819 
	C2446.708496,60.687588 2513.800293,36.056786 2584.366211,20.934017 
	C2614.883545,14.393915 2645.647461,9.448695 2676.814453,7.260163 
	C2682.099609,6.889038 2687.403809,6.641127 2692.650879,5.962107 
	C2694.333252,5.744374 2695.860107,4.321965 2696.729004,2.725367 
	C2722.708496,2.000000 2749.416992,2.000000 2777.062744,2.000000 
	C2775.034668,5.458322 2778.138672,5.722179 2780.283203,5.929492 
	C2788.534668,6.727224 2796.808105,7.296441 2805.069824,7.992830 
	C2837.896240,10.759851 2870.167480,16.782843 2901.999512,25.092457 
	C2980.162598,45.496708 3051.482666,79.990868 3115.434814,129.481293 
	C3128.026855,139.225800 3140.951660,148.583206 3149.903564,162.254181 
	C3169.490479,192.166870 3165.678955,233.935211 3141.212891,260.049561 
	C3122.287109,280.250366 3099.107666,287.647797 3071.907227,285.966431 
	C3050.073242,284.616760 3028.080811,283.291931 3006.285889,284.418152 
	C2970.762207,286.253815 2935.947266,293.153412 2901.906006,303.826782 
	C2829.751221,326.450165 2766.087891,364.046173 2709.613770,413.809296 
	C2668.467041,450.066742 2633.142334,491.441162 2606.195557,539.514282 
	C2590.365479,567.755188 2577.956543,597.329773 2572.976562,629.565063 
	C2571.967529,636.096863 2572.027588,642.799255 2571.686523,649.427734 
	C2570.810059,666.453186 2568.661133,683.096008 2559.189453,697.952148 
	C2548.612793,714.540955 2534.444824,726.244995 2515.496826,732.276855 
	C2482.143066,742.894531 2450.546387,757.316956 2421.253662,776.653076 
	C2378.510986,804.867249 2343.567383,840.957458 2314.465088,882.797302 
	C2291.827148,915.343018 2272.970459,950.027649 2257.645996,986.640015 
	C2244.375244,1018.347046 2220.345215,1036.838013 2186.152100,1038.929199 
	C2154.538574,1040.862671 2128.749023,1027.645020 2112.559570,999.993469 
	C2074.945557,935.749878 2046.082642,867.812195 2029.332642,795.025452 
	C2022.560669,765.598450 2017.402832,735.929932 2015.632446,705.734253 
	C2015.244751,699.122803 2014.618286,692.525391 2014.098755,684.101562 
	C2013.996216,665.466309 2013.896606,648.651062 2013.797119,631.835815 
M2729.508545,344.494995 
	C2778.068604,309.699341 2830.480713,282.439728 2887.580322,264.638214 
	C2945.695801,246.520050 3005.070557,238.478333 3065.994629,243.539627 
	C3074.241943,244.224762 3082.880127,244.971451 3090.842041,243.312332 
	C3106.239990,240.103546 3115.761963,229.378281 3119.446533,214.372086 
	C3123.088135,199.539215 3118.993652,186.183182 3106.760254,176.822601 
	C3087.197266,161.854034 3067.745117,146.530609 3046.940674,133.430145 
	C2936.069092,63.614998 2814.293945,38.942154 2684.788574,48.591053 
	C2623.733643,53.139988 2564.274658,66.170959 2506.538818,86.560249 
	C2384.044922,129.818695 2278.428955,198.479706 2193.716797,297.547699 
	C2116.086182,388.334351 2068.224854,492.403748 2057.398926,612.310059 
	C2052.877686,662.387817 2055.727051,712.087097 2065.037109,761.468079 
	C2077.356689,826.811218 2100.414795,888.321350 2131.190918,947.069641 
	C2136.907471,957.981995 2142.575928,968.980103 2149.189697,979.349976 
	C2165.677002,1005.200439 2202.381592,1003.165466 2216.300537,975.884949 
	C2218.113770,972.330994 2219.631348,968.623840 2221.231934,964.964172 
	C2237.965820,926.705933 2257.746826,890.144531 2281.994141,856.085022 
	C2326.118896,794.104492 2380.975830,744.620972 2450.627930,712.798523 
	C2466.936035,705.347656 2484.055664,699.630493 2500.943115,693.505188 
	C2512.894043,689.170471 2522.290039,682.108032 2526.166992,669.798279 
	C2528.329346,662.933167 2528.777100,655.485535 2529.617676,648.256348 
	C2530.923340,637.031799 2531.118896,625.624268 2533.166504,614.549805 
	C2540.158203,576.736694 2555.604980,542.129700 2575.261963,509.380951 
	C2614.600098,443.842651 2666.735596,390.146393 2729.508545,344.494995 
z"/>
<path fill="#FBFDFD" opacity="1.000000" stroke="none" 
	d="
M1351.062744,2.000000 
	C1348.993652,5.452775 1352.108765,5.678204 1354.257935,5.939263 
	C1364.119019,7.137070 1374.024414,7.989350 1383.867554,9.311682 
	C1457.087769,19.148182 1527.346191,39.354183 1594.873413,69.313828 
	C1664.891357,100.378555 1729.135010,140.649551 1787.105347,190.620575 
	C1848.542725,243.580078 1900.053345,304.949585 1939.422363,376.095551 
	C1970.335815,431.960815 1992.119385,491.298523 2003.315308,554.156677 
	C2007.770264,579.168396 2009.099365,604.736938 2011.958496,631.868103 
	C2012.032837,650.442749 2012.000488,667.201294 2011.968140,683.959778 
	C2008.018311,765.479675 1988.155396,843.189331 1954.630615,917.346008 
	C1942.471191,944.242554 1928.322510,970.277344 1914.314941,996.292542 
	C1889.496460,1042.385620 1827.914551,1051.227295 1788.689697,1015.649841 
	C1780.534302,1008.252686 1774.548584,998.988464 1770.129761,988.741211 
	C1749.126221,940.032776 1723.673584,893.965820 1689.888428,852.754761 
	C1642.519531,794.974365 1583.906128,753.776672 1512.353516,731.510803 
	C1479.558716,721.305664 1457.989014,693.306519 1455.593262,661.672119 
	C1454.493042,647.144165 1453.806030,632.467773 1451.112061,618.202209 
	C1445.579468,588.903015 1433.513062,561.934082 1418.787231,536.138855 
	C1400.415161,503.956451 1378.010010,474.832520 1352.719482,447.763458 
	C1307.759399,399.641754 1255.744507,361.044891 1196.989380,331.543762 
	C1147.330566,306.610016 1094.850586,290.511292 1039.594727,284.341125 
	C1012.503296,281.315948 985.255066,280.932983 958.006653,283.743561 
	C934.050171,286.214539 911.961975,281.985107 892.536682,266.072998 
	C854.993713,235.319855 853.486450,175.389374 890.369812,144.080704 
	C936.545471,104.884361 987.739197,73.779839 1043.659058,50.483543 
	C1097.021362,28.252708 1152.486450,14.102794 1209.863892,7.338989 
	C1214.468994,6.796145 1219.120117,6.594527 1223.695923,5.885796 
	C1225.046143,5.676669 1226.210938,4.270104 1226.730347,2.706142 
	C1267.375122,2.000000 1308.750244,2.000000 1351.062744,2.000000 
M1700.030884,800.972839 
	C1740.394897,843.414856 1771.415894,892.115173 1796.335571,944.886902 
	C1801.026245,954.820251 1805.102051,965.058472 1810.102173,974.828125 
	C1819.844727,993.863647 1842.199707,1001.155273 1861.357544,991.948120 
	C1869.168701,988.194214 1874.748901,982.120667 1878.718994,974.570801 
	C1889.411011,954.238342 1900.758301,934.206482 1910.489014,913.420288 
	C1950.439575,828.079956 1972.703735,738.762207 1970.400146,643.902100 
	C1969.145142,592.218201 1960.531738,541.921997 1944.438110,492.886536 
	C1912.546753,395.717865 1856.731934,313.953186 1782.984253,243.965302 
	C1725.689331,189.591461 1660.714722,146.410446 1589.139404,113.145638 
	C1508.305786,75.578049 1423.492676,52.732365 1334.535645,46.484211 
	C1283.899170,42.927620 1233.378296,45.064892 1183.207153,53.814304 
	C1107.762695,66.971214 1037.405518,93.277069 973.349304,135.364471 
	C953.636414,148.316650 934.883484,162.906021 916.730530,177.996231 
	C904.051147,188.536423 902.117859,204.983170 909.029724,219.987015 
	C915.331360,233.666061 928.901672,244.653931 949.731873,242.577179 
	C997.831055,237.781799 1045.527588,240.827423 1092.732910,250.976990 
	C1165.393799,266.599731 1231.555664,297.035278 1292.084229,339.843353 
	C1357.657349,386.219269 1412.833618,442.554291 1453.302979,512.310852 
	C1478.474487,555.698608 1496.344849,601.469910 1496.645996,652.901245 
	C1496.785767,676.727844 1511.719727,687.686707 1527.212036,692.516479 
	C1593.819458,713.281433 1650.804932,749.707825 1700.030884,800.972839 
z"/>
<path fill="#FBFDFD" opacity="1.000000" stroke="none" 
	d="
M2860.937256,1590.000000 
	C2862.745361,1587.578735 2860.595703,1586.493774 2858.621094,1586.241333 
	C2851.715332,1585.358765 2844.760010,1584.876709 2837.838623,1584.105713 
	C2779.722656,1577.631714 2723.748047,1562.648193 2669.478271,1541.177368 
	C2597.520508,1512.708374 2531.825195,1473.631592 2472.914307,1423.406738 
	C2419.072998,1377.504272 2373.253662,1324.790649 2339.258301,1262.419678 
	C2323.654541,1233.791504 2310.447754,1204.023560 2302.300293,1172.337280 
	C2295.317871,1145.182373 2295.864990,1117.638672 2301.008057,1090.278198 
	C2310.030762,1042.280396 2332.375000,1000.242859 2360.271729,960.829163 
	C2382.858887,928.916992 2409.214844,900.258728 2437.691406,873.639282 
	C2471.005127,842.498169 2506.703857,814.203735 2545.322266,789.877258 
	C2563.020508,778.728638 2582.022461,778.824463 2600.276855,789.093140 
	C2617.777832,798.938110 2627.485596,814.263184 2627.586670,834.538086 
	C2627.824219,882.134399 2635.762451,928.303223 2652.949463,972.683594 
	C2670.156738,1017.115356 2695.016113,1057.031982 2726.580322,1092.691406 
	C2786.076416,1159.907104 2859.450928,1206.507202 2943.143066,1237.557861 
	C2987.198975,1253.903076 3032.668701,1264.405273 3079.380371,1269.551758 
	C3109.881104,1272.912109 3140.512939,1273.484619 3171.013672,1271.077026 
	C3228.225342,1266.561035 3282.907959,1252.404907 3333.100830,1223.701782 
	C3366.168701,1204.791626 3403.011963,1224.354980 3412.453369,1253.033691 
	C3418.047363,1270.026123 3415.792725,1285.746582 3406.462646,1300.559204 
	C3384.649902,1335.188965 3360.350098,1367.935181 3332.900146,1398.374268 
	C3298.203857,1436.848511 3259.746338,1470.942139 3216.359863,1499.261108 
	C3156.991455,1538.011841 3092.632080,1564.874268 3022.840576,1577.980469 
	C3003.642578,1581.585693 2984.119873,1583.453003 2964.765381,1586.251343 
	C2963.332764,1586.458496 2962.056641,1587.747681 2961.354004,1589.266968 
	C2928.624756,1590.000000 2895.249756,1590.000000 2860.937256,1590.000000 
M3301.553711,1370.551270 
	C3326.117432,1343.238892 3348.060791,1313.938354 3367.898193,1283.044312 
	C3369.513428,1280.529053 3371.000732,1277.922485 3372.399902,1275.280151 
	C3375.010254,1270.350830 3373.165039,1266.151611 3369.705566,1262.604980 
	C3366.272705,1259.085327 3362.104736,1257.094849 3357.081299,1259.169678 
	C3354.626953,1260.183472 3352.268066,1261.453857 3349.937012,1262.737061 
	C3291.631104,1294.829834 3228.687500,1310.221802 3162.689941,1313.737427 
	C3098.643066,1317.149292 3035.698730,1309.555542 2974.048096,1291.893066 
	C2875.542236,1263.671509 2788.086670,1215.988525 2715.673584,1142.732300 
	C2632.684570,1058.776855 2587.372559,958.412842 2586.051758,839.433533 
	C2585.982666,833.218201 2584.398438,828.379150 2578.649658,825.359497 
	C2572.988037,822.385620 2568.328369,824.865417 2563.826416,827.962097 
	C2555.593018,833.625732 2547.350830,839.282898 2539.258545,845.144775 
	C2489.109619,881.472351 2443.216797,922.365112 2405.112305,971.454956 
	C2378.567139,1005.652954 2356.728271,1042.413208 2345.330566,1084.658691 
	C2336.686523,1116.697754 2336.359131,1148.536499 2348.306885,1179.834473 
	C2354.234375,1195.362671 2360.391602,1210.878418 2367.670166,1225.802368 
	C2395.475098,1282.817871 2433.855225,1332.118530 2480.918457,1374.284546 
	C2608.943115,1488.986938 2757.920898,1549.788818 2931.179443,1546.744751 
	C2959.551025,1546.246338 2987.653320,1542.802246 3015.424561,1537.207642 
	C3129.186768,1514.289673 3223.208496,1457.228760 3301.553711,1370.551270 
z"/>
<path fill="#FBFDFD" opacity="1.000000" stroke="none" 
	d="
M1088.937256,1590.000000 
	C1088.158691,1588.946533 1088.576416,1587.015503 1088.436279,1586.974121 
	C1086.879150,1586.514404 1085.241577,1586.184326 1083.614502,1586.124268 
	C1030.793335,1584.169800 979.579041,1573.913696 929.685730,1556.627441 
	C860.642517,1532.706177 799.278442,1495.913086 744.418823,1447.739502 
	C700.867004,1409.495605 664.159058,1365.467651 631.582092,1317.790649 
	C626.149658,1309.840210 620.459167,1301.905273 616.277954,1293.288574 
	C598.123657,1255.875854 625.139648,1217.398438 659.864868,1215.146851 
	C671.088379,1214.419067 681.701599,1215.744873 691.447815,1221.275269 
	C738.693665,1248.084595 789.583923,1263.033936 843.487610,1268.018311 
	C860.320374,1269.574707 877.257751,1271.366699 894.113342,1271.077759 
	C973.789978,1269.711426 1050.050659,1252.571655 1122.676025,1219.622681 
	C1168.939819,1198.633301 1211.829590,1172.237427 1250.496460,1139.188477 
	C1292.858887,1102.981079 1328.204224,1061.090088 1354.296143,1011.568481 
	C1374.921875,972.421509 1388.949463,931.208252 1394.214966,887.243713 
	C1396.300049,869.833740 1397.677124,852.275879 1398.150879,834.752136 
	C1398.735718,813.116028 1407.941895,796.739014 1426.651489,786.760010 
	C1445.271240,776.828857 1464.916382,776.891602 1482.397949,789.334778 
	C1509.727783,808.788086 1536.936401,828.543518 1562.890625,849.767517 
	C1602.661377,882.290039 1637.720703,919.544922 1667.359375,961.656860 
	C1691.814575,996.404236 1711.629028,1033.441162 1721.970459,1075.020142 
	C1732.451538,1117.161743 1730.180908,1158.256226 1714.750610,1199.179443 
	C1693.630859,1255.192017 1663.048096,1305.288696 1624.424438,1350.686035 
	C1572.577881,1411.624878 1510.732544,1460.332764 1441.114136,1499.357178 
	C1385.507812,1530.526978 1326.723145,1553.797974 1264.746338,1568.778442 
	C1224.997803,1578.386230 1184.774780,1584.985962 1143.785156,1586.193359 
	C1141.406128,1586.263428 1139.067383,1587.701172 1137.354980,1589.251221 
	C1121.958130,1590.000000 1105.916382,1590.000000 1088.937256,1590.000000 
M1445.337402,1448.416138 
	C1498.679688,1415.455933 1546.742188,1376.187622 1587.957764,1328.784668 
	C1627.459961,1283.352539 1658.765503,1233.130249 1678.490479,1175.883423 
	C1689.203735,1144.791504 1688.925659,1113.857422 1680.489380,1082.580933 
	C1669.640259,1042.359375 1649.192871,1007.043701 1624.193970,974.212769 
	C1578.869263,914.688354 1522.669312,867.031799 1460.840210,825.605164 
	C1460.011719,825.050110 1459.200806,824.446716 1458.311646,824.007507 
	C1450.462158,820.130493 1441.558472,824.633972 1440.184082,833.283386 
	C1439.821655,835.563538 1440.174194,837.947510 1439.996582,840.268372 
	C1438.498169,859.839355 1438.093140,879.576050 1435.216675,898.944763 
	C1424.942993,968.123413 1398.165405,1030.645386 1356.815186,1086.952881 
	C1309.000122,1152.063843 1248.097534,1202.043213 1177.152466,1239.772827 
	C1082.437256,1290.144043 981.559509,1315.582397 873.834351,1312.378174 
	C824.827759,1310.920410 777.058289,1302.966431 731.168945,1285.792114 
	C710.978455,1278.235718 691.779297,1268.026855 672.146240,1258.987061 
	C665.439453,1255.898926 659.997009,1256.593872 655.831421,1261.216919 
	C651.585388,1265.929199 651.383423,1270.000488 655.125732,1276.729004 
	C655.934021,1278.182129 656.871216,1279.564819 657.772644,1280.964722 
	C684.192749,1321.992554 714.023499,1360.277832 748.904602,1394.521729 
	C858.871338,1502.479614 991.007874,1551.988037 1144.694946,1544.724365 
	C1175.018921,1543.291138 1204.995605,1539.151855 1234.679565,1532.902344 
	C1309.349243,1517.181519 1379.020874,1488.914307 1445.337402,1448.416138 
z"/>
<path fill="#010000" opacity="1.000000" stroke="none" 
	d="
M4022.000000,697.500000 
	C4021.556152,697.233398 4021.112305,696.466858 4021.334229,695.850159 
	C4022.000000,696.000000 4022.000000,697.000000 4022.000000,697.500000 
z"/>
<path fill="#535151" opacity="1.000000" stroke="none" 
	d="
M4022.000000,719.500000 
	C4021.522705,719.207031 4021.045166,718.414001 4021.283936,717.810547 
	C4022.000000,718.000000 4022.000000,719.000000 4022.000000,719.500000 
z"/>
<path fill="#FBFDFD" opacity="1.000000" stroke="none" 
	d="
M2032.713989,1501.325806 
	C2009.184326,1507.911499 1989.423096,1503.198120 1972.726685,1485.955444 
	C1944.481689,1456.786621 1915.990845,1427.856079 1887.641479,1398.788086 
	C1863.711060,1374.250977 1839.818237,1349.677124 1815.939697,1325.089478 
	C1795.078125,1303.608398 1773.835327,1282.477173 1753.540771,1260.472290 
	C1732.912476,1238.105347 1736.077515,1201.031128 1761.361572,1181.970825 
	C1763.897095,1180.059448 1767.285034,1179.238892 1770.332275,1178.052856 
	C1797.840820,1167.346802 1825.322754,1156.571045 1852.893188,1146.026367 
	C1869.255981,1139.768066 1881.706543,1128.503052 1893.111938,1115.742432 
	C1921.885864,1083.549683 1948.697266,1049.732788 1973.866821,1014.716248 
	C1991.690552,989.919250 2037.039185,990.801758 2054.512939,1015.005188 
	C2076.065430,1044.857666 2100.103760,1072.903564 2122.626709,1102.070679 
	C2141.041504,1125.917847 2164.332275,1142.686157 2192.444824,1153.130127 
	C2213.252197,1160.860107 2233.870605,1169.108276 2254.761963,1176.599854 
	C2273.804688,1183.428589 2286.758057,1199.372925 2288.284668,1219.288452 
	C2289.629883,1236.841309 2284.300781,1251.895508 2271.762939,1264.487671 
	C2250.859619,1285.481567 2230.121338,1306.640503 2209.379883,1327.795044 
	C2179.320557,1358.452637 2149.284424,1389.133057 2119.308105,1419.871338 
	C2097.942139,1441.780151 2076.655518,1463.766479 2055.408936,1485.791138 
	C2049.081055,1492.350830 2041.938843,1497.615356 2032.713989,1501.325806 
M2113.133301,1153.882812 
	C2109.193604,1149.812622 2105.168701,1145.821167 2101.328125,1141.659668 
	C2073.934326,1111.976196 2049.318604,1080.030029 2025.700439,1047.343994 
	C2017.011475,1035.319092 2011.320068,1035.419922 2002.369385,1047.060303 
	C1979.629150,1076.634399 1955.760254,1105.337402 1932.713989,1134.680298 
	C1911.103638,1162.194702 1883.795288,1181.472412 1850.981323,1193.200684 
	C1850.041138,1193.536743 1849.113403,1193.907593 1848.177734,1194.256592 
	C1828.840332,1201.471558 1809.495117,1208.665161 1790.168579,1215.909180 
	C1781.551270,1219.139038 1779.545288,1225.701538 1784.911743,1232.973755 
	C1785.696899,1234.037720 1786.710571,1234.936279 1787.639893,1235.890503 
	C1812.745728,1261.670532 1837.853516,1287.448975 1862.962891,1313.225586 
	C1893.653687,1344.731934 1924.324707,1376.257446 1955.046997,1407.732910 
	C1971.340332,1424.425781 1987.636353,1441.117920 2004.108765,1457.633301 
	C2011.015503,1464.558228 2016.805298,1464.352661 2023.955933,1457.638062 
	C2025.656128,1456.041992 2027.276245,1454.359497 2028.909424,1452.693237 
	C2083.722412,1396.768188 2138.539795,1340.847412 2193.339111,1284.909058 
	C2208.962158,1268.961426 2224.635010,1253.060425 2240.090820,1236.951904 
	C2250.549561,1226.051392 2248.826416,1219.796265 2235.094971,1214.498413 
	C2209.636719,1204.675903 2184.198730,1194.774048 2159.019043,1184.265625 
	C2142.335205,1177.303101 2126.981934,1167.911377 2113.133301,1153.882812 
z"/>
<path fill="#7E7E7E" opacity="1.000000" stroke="none" 
	d="
M2012.428223,683.983276 
	C2012.000488,667.201294 2012.032837,650.442749 2012.166992,632.739014 
	C2012.268799,631.793762 2013.034424,631.761780 2013.415771,631.798828 
	C2013.896606,648.651062 2013.996216,665.466309 2013.946533,683.218384 
	C2013.797485,684.155212 2012.888184,684.006836 2012.428223,683.983276 
z"/>
<path fill="#01AEEF" opacity="1.000000" stroke="none" 
	d="
M891.722961,983.740845 
	C897.092957,980.279175 901.788574,977.111389 906.566956,974.073669 
	C958.734619,940.908325 1003.425964,858.809509 1009.442261,809.553528 
	C1015.168091,762.675781 1003.385620,721.134399 973.688660,684.622681 
	C948.149536,653.222778 915.453125,631.165527 879.485657,613.597534 
	C832.145020,590.474487 781.961365,576.518860 730.224243,567.452942 
	C672.227356,557.290100 613.835632,554.021362 555.096985,556.802307 
	C495.342834,559.631287 436.539764,568.553162 379.261566,586.206970 
	C333.164948,600.414551 289.423431,619.692383 250.056381,648.008484 
	C217.434769,671.472717 190.264206,699.906494 170.725632,735.299194 
	C165.487854,744.787109 161.594406,746.517700 151.181992,743.934753 
	C120.495956,736.322754 89.867065,728.480408 59.184200,720.855408 
	C53.742775,719.503174 49.063782,717.471069 46.850040,711.892029 
	C44.565369,706.133972 46.036953,700.915222 51.905224,696.065857 
	C61.150723,688.425659 70.531319,680.942566 80.000679,673.580750 
	C159.864395,611.491760 243.835342,555.709473 333.574677,508.823761 
	C428.428619,459.265839 527.302979,420.364868 631.982483,397.087677 
	C688.660645,384.484375 745.954224,376.888916 804.119751,375.509552 
	C877.266785,373.774902 949.038452,381.587585 1018.969788,403.676056 
	C1080.684937,423.169312 1137.055786,452.439270 1185.403198,496.040253 
	C1237.564209,543.080505 1273.075928,600.133911 1288.861206,668.958252 
	C1293.638306,689.786316 1296.160034,710.878174 1296.873291,732.251099 
	C1299.180786,801.394592 1282.417847,866.399414 1252.312256,927.882996 
	C1234.356323,964.553833 1209.128784,996.693176 1180.642090,1026.017578 
	C1115.276245,1093.305664 1036.191284,1135.541260 944.243530,1153.110474 
	C862.969788,1168.640137 783.123535,1163.684570 706.012817,1131.774292 
	C665.691345,1115.088379 630.385376,1091.129761 603.167419,1056.424927 
	C580.100647,1027.013184 567.329285,993.647217 565.194458,956.228882 
	C563.756042,931.015442 567.348145,906.471558 574.249573,882.302551 
	C576.081848,875.886047 578.839966,870.409180 586.382507,869.402649 
	C593.314026,868.477722 597.360046,872.248901 601.043152,877.591064 
	C619.804749,904.803833 640.323303,930.577515 664.509521,953.250183 
	C687.565979,974.863647 712.888184,993.077881 742.947693,1003.699890 
	C790.535706,1020.516113 836.008545,1013.831360 879.796631,990.513428 
	C883.616211,988.479370 887.326172,986.239319 891.722961,983.740845 
z"/>
<path fill="#01AEEF" opacity="1.000000" stroke="none" 
	d="
M3871.706543,746.238037 
	C3864.083740,747.346008 3859.309082,744.571167 3856.087402,738.636719 
	C3828.230225,687.322327 3785.635986,651.546936 3735.095215,624.259033 
	C3690.495117,600.178711 3642.823242,584.601440 3593.429688,574.051025 
	C3533.212646,561.188599 3472.276367,556.401550 3410.748779,557.896667 
	C3349.217773,559.391968 3288.657715,567.368530 3229.347900,584.002075 
	C3192.024902,594.469421 3156.093018,608.434265 3122.499268,628.007996 
	C3093.425781,644.948120 3067.348389,665.493042 3047.220703,692.727600 
	C3014.398926,737.139099 3007.258301,786.137024 3022.810303,838.646301 
	C3033.174561,873.640320 3051.440918,904.581360 3073.997559,932.940186 
	C3108.095215,975.809021 3152.238281,1002.912415 3206.185059,1012.528503 
	C3243.308350,1019.145752 3278.319092,1010.905457 3311.033936,992.490173 
	C3344.370605,973.724670 3371.412109,947.723999 3395.377441,918.371277 
	C3406.112793,905.222290 3415.822021,891.237671 3426.063232,877.682434 
	C3431.613037,870.336975 3438.800049,868.335022 3444.950684,873.074097 
	C3447.640381,875.146484 3450.071289,878.656372 3450.839355,881.931030 
	C3454.254150,896.486267 3458.365479,911.062622 3459.803711,925.866516 
	C3467.358887,1003.633606 3434.234619,1061.971680 3371.686768,1105.375977 
	C3332.999268,1132.222778 3289.661621,1148.473145 3243.465332,1155.848877 
	C3099.371826,1178.854858 2971.811279,1142.525146 2863.160156,1044.876831 
	C2795.150391,983.754089 2752.657959,907.379578 2735.750000,817.076904 
	C2731.381348,793.744202 2728.432373,770.233887 2728.555664,746.636475 
	C2728.929443,675.005310 2748.871338,609.392151 2791.722656,551.369568 
	C2836.772217,490.369904 2896.569580,448.837158 2965.930420,420.171387 
	C3015.172363,399.820404 3066.461426,387.083374 3119.435547,381.798340 
	C3146.904785,379.057892 3174.544678,376.726410 3202.115479,376.634308 
	C3236.376221,376.519836 3270.614258,378.897430 3304.711426,383.223145 
	C3453.252930,402.067780 3590.350830,454.189728 3720.775146,525.754700 
	C3809.245850,574.299316 3891.935303,631.445862 3970.474854,694.697693 
	C3971.253418,695.324524 3972.026855,695.961365 3972.838623,696.543274 
	C3978.145020,700.346802 3981.226562,705.289551 3979.629395,711.953613 
	C3978.140625,718.166382 3973.482178,720.852905 3967.470947,722.308533 
	C3949.679199,726.616760 3931.980225,731.305420 3914.227051,735.775146 
	C3900.346436,739.269897 3886.439209,742.659912 3871.706543,746.238037 
z"/>
<path fill="#01AEEF" opacity="1.000000" stroke="none" 
	d="
M2728.933594,344.925598 
	C2666.735596,390.146393 2614.600098,443.842651 2575.261963,509.380951 
	C2555.604980,542.129700 2540.158203,576.736694 2533.166504,614.549805 
	C2531.118896,625.624268 2530.923340,637.031799 2529.617676,648.256348 
	C2528.777100,655.485535 2528.329346,662.933167 2526.166992,669.798279 
	C2522.290039,682.108032 2512.894043,689.170471 2500.943115,693.505188 
	C2484.055664,699.630493 2466.936035,705.347656 2450.627930,712.798523 
	C2380.975830,744.620972 2326.118896,794.104492 2281.994141,856.085022 
	C2257.746826,890.144531 2237.965820,926.705933 2221.231934,964.964172 
	C2219.631348,968.623840 2218.113770,972.330994 2216.300537,975.884949 
	C2202.381592,1003.165466 2165.677002,1005.200439 2149.189697,979.349976 
	C2142.575928,968.980103 2136.907471,957.981995 2131.190918,947.069641 
	C2100.414795,888.321350 2077.356689,826.811218 2065.037109,761.468079 
	C2055.727051,712.087097 2052.877686,662.387817 2057.398926,612.310059 
	C2068.224854,492.403748 2116.086182,388.334351 2193.716797,297.547699 
	C2278.428955,198.479706 2384.044922,129.818695 2506.538818,86.560249 
	C2564.274658,66.170959 2623.733643,53.139988 2684.788574,48.591053 
	C2814.293945,38.942154 2936.069092,63.614998 3046.940674,133.430145 
	C3067.745117,146.530609 3087.197266,161.854034 3106.760254,176.822601 
	C3118.993652,186.183182 3123.088135,199.539215 3119.446533,214.372086 
	C3115.761963,229.378281 3106.239990,240.103546 3090.842041,243.312332 
	C3082.880127,244.971451 3074.241943,244.224762 3065.994629,243.539627 
	C3005.070557,238.478333 2945.695801,246.520050 2887.580322,264.638214 
	C2830.480713,282.439728 2778.068604,309.699341 2728.933594,344.925598 
z"/>
<path fill="#01AEEF" opacity="1.000000" stroke="none" 
	d="
M1699.572510,800.434692 
	C1650.804932,749.707825 1593.819458,713.281433 1527.212036,692.516479 
	C1511.719727,687.686707 1496.785767,676.727844 1496.645996,652.901245 
	C1496.344849,601.469910 1478.474487,555.698608 1453.302979,512.310852 
	C1412.833618,442.554291 1357.657349,386.219269 1292.084229,339.843353 
	C1231.555664,297.035278 1165.393799,266.599731 1092.732910,250.976990 
	C1045.527588,240.827423 997.831055,237.781799 949.731873,242.577179 
	C928.901672,244.653931 915.331360,233.666061 909.029724,219.987015 
	C902.117859,204.983170 904.051147,188.536423 916.730530,177.996231 
	C934.883484,162.906021 953.636414,148.316650 973.349304,135.364471 
	C1037.405518,93.277069 1107.762695,66.971214 1183.207153,53.814304 
	C1233.378296,45.064892 1283.899170,42.927620 1334.535645,46.484211 
	C1423.492676,52.732365 1508.305786,75.578049 1589.139404,113.145638 
	C1660.714722,146.410446 1725.689331,189.591461 1782.984253,243.965302 
	C1856.731934,313.953186 1912.546753,395.717865 1944.438110,492.886536 
	C1960.531738,541.921997 1969.145142,592.218201 1970.400146,643.902100 
	C1972.703735,738.762207 1950.439575,828.079956 1910.489014,913.420288 
	C1900.758301,934.206482 1889.411011,954.238342 1878.718994,974.570801 
	C1874.748901,982.120667 1869.168701,988.194214 1861.357544,991.948120 
	C1842.199707,1001.155273 1819.844727,993.863647 1810.102173,974.828125 
	C1805.102051,965.058472 1801.026245,954.820251 1796.335571,944.886902 
	C1771.415894,892.115173 1740.394897,843.414856 1699.572510,800.434692 
z"/>
<path fill="#01AEEF" opacity="1.000000" stroke="none" 
	d="
M3301.069824,1371.068970 
	C3223.208496,1457.228760 3129.186768,1514.289673 3015.424561,1537.207642 
	C2987.653320,1542.802246 2959.551025,1546.246338 2931.179443,1546.744751 
	C2757.920898,1549.788818 2608.943115,1488.986938 2480.918457,1374.284546 
	C2433.855225,1332.118530 2395.475098,1282.817871 2367.670166,1225.802368 
	C2360.391602,1210.878418 2354.234375,1195.362671 2348.306885,1179.834473 
	C2336.359131,1148.536499 2336.686523,1116.697754 2345.330566,1084.658691 
	C2356.728271,1042.413208 2378.567139,1005.652954 2405.112305,971.454956 
	C2443.216797,922.365112 2489.109619,881.472351 2539.258545,845.144775 
	C2547.350830,839.282898 2555.593018,833.625732 2563.826416,827.962097 
	C2568.328369,824.865417 2572.988037,822.385620 2578.649658,825.359497 
	C2584.398438,828.379150 2585.982666,833.218201 2586.051758,839.433533 
	C2587.372559,958.412842 2632.684570,1058.776855 2715.673584,1142.732300 
	C2788.086670,1215.988525 2875.542236,1263.671509 2974.048096,1291.893066 
	C3035.698730,1309.555542 3098.643066,1317.149292 3162.689941,1313.737427 
	C3228.687500,1310.221802 3291.631104,1294.829834 3349.937012,1262.737061 
	C3352.268066,1261.453857 3354.626953,1260.183472 3357.081299,1259.169678 
	C3362.104736,1257.094849 3366.272705,1259.085327 3369.705566,1262.604980 
	C3373.165039,1266.151611 3375.010254,1270.350830 3372.399902,1275.280151 
	C3371.000732,1277.922485 3369.513428,1280.529053 3367.898193,1283.044312 
	C3348.060791,1313.938354 3326.117432,1343.238892 3301.069824,1371.068970 
z"/>
<path fill="#01AEEF" opacity="1.000000" stroke="none" 
	d="
M1444.725586,1448.812500 
	C1379.020874,1488.914307 1309.349243,1517.181519 1234.679565,1532.902344 
	C1204.995605,1539.151855 1175.018921,1543.291138 1144.694946,1544.724365 
	C991.007874,1551.988037 858.871338,1502.479614 748.904602,1394.521729 
	C714.023499,1360.277832 684.192749,1321.992554 657.772644,1280.964722 
	C656.871216,1279.564819 655.934021,1278.182129 655.125732,1276.729004 
	C651.383423,1270.000488 651.585388,1265.929199 655.831421,1261.216919 
	C659.997009,1256.593872 665.439453,1255.898926 672.146240,1258.987061 
	C691.779297,1268.026855 710.978455,1278.235718 731.168945,1285.792114 
	C777.058289,1302.966431 824.827759,1310.920410 873.834351,1312.378174 
	C981.559509,1315.582397 1082.437256,1290.144043 1177.152466,1239.772827 
	C1248.097534,1202.043213 1309.000122,1152.063843 1356.815186,1086.952881 
	C1398.165405,1030.645386 1424.942993,968.123413 1435.216675,898.944763 
	C1438.093140,879.576050 1438.498169,859.839355 1439.996582,840.268372 
	C1440.174194,837.947510 1439.821655,835.563538 1440.184082,833.283386 
	C1441.558472,824.633972 1450.462158,820.130493 1458.311646,824.007507 
	C1459.200806,824.446716 1460.011719,825.050110 1460.840210,825.605164 
	C1522.669312,867.031799 1578.869263,914.688354 1624.193970,974.212769 
	C1649.192871,1007.043701 1669.640259,1042.359375 1680.489380,1082.580933 
	C1688.925659,1113.857422 1689.203735,1144.791504 1678.490479,1175.883423 
	C1658.765503,1233.130249 1627.459961,1283.352539 1587.957764,1328.784668 
	C1546.742188,1376.187622 1498.679688,1415.455933 1444.725586,1448.812500 
z"/>
<path fill="#01AEEF" opacity="1.000000" stroke="none" 
	d="
M2113.635254,1154.385742 
	C2126.981934,1167.911377 2142.335205,1177.303101 2159.019043,1184.265625 
	C2184.198730,1194.774048 2209.636719,1204.675903 2235.094971,1214.498413 
	C2248.826416,1219.796265 2250.549561,1226.051392 2240.090820,1236.951904 
	C2224.635010,1253.060425 2208.962158,1268.961426 2193.339111,1284.909058 
	C2138.539795,1340.847412 2083.722412,1396.768188 2028.909424,1452.693237 
	C2027.276245,1454.359497 2025.656128,1456.041992 2023.955933,1457.638062 
	C2016.805298,1464.352661 2011.015503,1464.558228 2004.108765,1457.633301 
	C1987.636353,1441.117920 1971.340332,1424.425781 1955.046997,1407.732910 
	C1924.324707,1376.257446 1893.653687,1344.731934 1862.962891,1313.225586 
	C1837.853516,1287.448975 1812.745728,1261.670532 1787.639893,1235.890503 
	C1786.710571,1234.936279 1785.696899,1234.037720 1784.911743,1232.973755 
	C1779.545288,1225.701538 1781.551270,1219.139038 1790.168579,1215.909180 
	C1809.495117,1208.665161 1828.840332,1201.471558 1848.177734,1194.256592 
	C1849.113403,1193.907593 1850.041138,1193.536743 1850.981323,1193.200684 
	C1883.795288,1181.472412 1911.103638,1162.194702 1932.713989,1134.680298 
	C1955.760254,1105.337402 1979.629150,1076.634399 2002.369385,1047.060303 
	C2011.320068,1035.419922 2017.011475,1035.319092 2025.700439,1047.343994 
	C2049.318604,1080.030029 2073.934326,1111.976196 2101.328125,1141.659668 
	C2105.168701,1145.821167 2109.193604,1149.812622 2113.635254,1154.385742 
z"/>
</svg>